<svg version="1.1" id="Layer_1" xmlns="http://www.w3.org/2000/svg" xmlns:xlink="http://www.w3.org/1999/xlink" x="0px" y="0px"
	 width="70px" height="60px" viewBox="0 0 50 75" xml:space="preserve">
<path fill="#000000" d="M46.979,47.899c0.469-0.715,0.841-1.496,1.107-2.318c0.266-0.814,0.429-1.669,0.482-2.54
	c0.053-0.863,0-1.742-0.168-2.613L42.44,9.551c-0.189-0.979-0.57-1.904-1.098-2.739c-0.523-0.832-1.195-1.58-1.969-2.207
	c-0.772-0.628-1.652-1.139-2.594-1.496c-0.946-0.358-1.959-0.564-2.996-0.576L12.315,2.275C11.066,2.26,9.878,2.46,8.796,2.838
	C7.7,3.221,6.712,3.787,5.882,4.497c-0.841,0.719-1.52,1.586-1.981,2.56c-0.467,0.985-0.711,2.077-0.675,3.23L4.38,47.494
	c0.033,1.074,0.229,2.108,0.567,3.077c0.341,0.972,0.826,1.874,1.435,2.676c0.611,0.805,1.344,1.508,2.18,2.082
	c0.835,0.574,1.769,1.018,2.78,1.306l0.612,11.318c0.024,0.438,0.13,0.839,0.301,1.185c0.172,0.347,0.409,0.638,0.693,0.861
	c0.285,0.223,0.617,0.377,0.98,0.45c0.362,0.071,0.753,0.062,1.157-0.042l30.083-7.771c0.312-0.081,0.596-0.233,0.842-0.441
	c0.244-0.208,0.451-0.47,0.61-0.767s0.271-0.629,0.328-0.979c0.056-0.35,0.056-0.716-0.009-1.084l-1.673-9.536
	C45.933,49.273,46.505,48.621,46.979,47.899z M22.383,43.203l-0.142-1.76l18.928-3.188l0.248,1.615L22.383,43.203z M42.44,30.188
	c-0.118,0.594-0.342,1.151-0.655,1.643c-0.313,0.494-0.719,0.922-1.195,1.252c-0.479,0.333-1.029,0.566-1.633,0.669L17.478,37.43
	c-0.727,0.125-1.435,0.093-2.092-0.074c-0.659-0.168-1.264-0.468-1.783-0.879c-0.52-0.411-0.952-0.93-1.266-1.532
	c-0.312-0.601-0.505-1.281-0.548-2.017l-1.275-21.883c-0.036-0.62,0.069-1.216,0.288-1.763c0.218-0.543,0.549-1.038,0.966-1.458
	c0.415-0.417,0.915-0.761,1.475-1.008C13.8,6.57,14.416,6.42,15.069,6.39l19.473-0.903c0.553-0.026,1.095,0.059,1.604,0.235
	c0.506,0.175,0.979,0.44,1.396,0.776c0.416,0.335,0.776,0.742,1.055,1.201c0.279,0.459,0.479,0.972,0.573,1.519l3.291,19.115
	C42.57,28.971,42.558,29.598,42.44,30.188z"/>

<filter id="pictureFilter" >
  <feGaussianBlur stdDeviation="15" />
</filter>
</svg>
